<?xml version="1.0" encoding="UTF-8"?>
<svg xmlns="http://www.w3.org/2000/svg" xmlns:xlink="http://www.w3.org/1999/xlink" width="25pt" height="25pt" viewBox="0 0 25 25" version="1.1">
<g id="surface1">
<path style="fill:none;stroke-width:4.5;stroke-linecap:butt;stroke-linejoin:miter;stroke:rgb(0%,0%,0%);stroke-opacity:1;stroke-miterlimit:4;" d="M -353.991599 232.368333 L -442.99058 321.367313 L -449.073876 344.082976 L -427.483448 338.280987 L -337.781196 248.578736 C -337.781196 248.578736 -329.482595 240.596607 -337.781196 232.368333 C -345.587507 224.597185 -353.6048 231.981533 -353.991599 232.368333 Z M -353.991599 232.368333 " transform="matrix(0.111088,0,0,0.111088,56,-19.313333)"/>
<path style="fill:none;stroke-width:2.2979;stroke-linecap:butt;stroke-linejoin:miter;stroke:rgb(0%,0%,0%);stroke-opacity:1;stroke-miterlimit:4;" d="M -424.529708 334.237178 C -424.529708 334.237178 -429.206462 336.206337 -431.35144 333.991033 C -433.496417 331.775728 -432.44151 327.274792 -432.44151 327.274792 C -432.44151 327.274792 -436.239175 329.243951 -437.786372 327.028647 C -439.333569 324.813342 -439.966513 323.547454 -439.157751 321.296986 C -438.313826 319.046518 -438.94677 318.097102 -438.94677 318.097102 " transform="matrix(0.111088,0,0,0.111088,56,-19.313333)"/>
<path style="fill:none;stroke-width:6.25;stroke-linecap:butt;stroke-linejoin:miter;stroke:rgb(0%,0%,0%);stroke-opacity:1;stroke-miterlimit:4;" d="M -447.421189 341.867671 L -442.709271 337.859025 " transform="matrix(0.111088,0,0,0.111088,56,-19.313333)"/>
<path style="fill:none;stroke-width:2.75;stroke-linecap:butt;stroke-linejoin:miter;stroke:rgb(0%,0%,0%);stroke-opacity:1;stroke-miterlimit:4;" d="M -432.125038 327.45061 C -427.764756 323.125491 -338.308649 234.970436 -338.308649 234.970436 " transform="matrix(0.111088,0,0,0.111088,56,-19.313333)"/>
<path style="fill-rule:nonzero;fill:rgb(0%,0%,0%);fill-opacity:1;stroke-width:2.75;stroke-linecap:round;stroke-linejoin:round;stroke:rgb(0%,0%,0%);stroke-opacity:1;stroke-miterlimit:4;" d="M -335.382452 238.285835 C -335.386919 243.185293 -339.188804 247.171451 -343.855108 247.176555 C -348.576482 247.191271 -352.367752 243.2099 -352.363285 238.310442 C -352.331962 233.363699 -348.556932 229.424826 -343.890628 229.419722 C -339.169254 229.405006 -335.377985 233.386377 -335.382452 238.285835 Z M -335.382452 238.285835 " transform="matrix(0.0787381,0.0160056,0.0447196,0.091702,34.462259,-9.569249)"/>
</g>
</svg>
